<svg xmlns:dc="http://purl.org/dc/elements/1.1/" xmlns:cc="http://creativecommons.org/ns#" xmlns:rdf="http://www.w3.org/1999/02/22-rdf-syntax-ns#" xmlns:svg="http://www.w3.org/2000/svg" xmlns="http://www.w3.org/2000/svg" viewBox="0 0 280 280" fill="none"><metadata><rdf:RDF><cc:Work><dc:format>image/svg+xml</dc:format><dc:type rdf:resource="http://purl.org/dc/dcmitype/StillImage"/><dc:title>Avataaars</dc:title><dc:creator><cc:Agent><dc:title>Pablo Stanley</dc:title></cc:Agent></dc:creator><dc:source>https://avataaars.com/</dc:source><cc:license rdf:resource="https://avataaars.com/"/><dc:contributor><cc:Agent><dc:title>Florian Körner</dc:title></cc:Agent></dc:contributor></cc:Work></rdf:RDF></metadata><rect fill="transparent" width="280" height="280" x="0" y="0"/><g transform="translate(40, 36)"><path d="M100 0C69.072 0 44 25.072 44 56v6.166c-5.675.952-10 5.888-10 11.834v14c0 6.052 4.48 11.058 10.305 11.881 2.067 19.806 14.458 36.541 31.695 44.73V163h-4c-39.764 0-72 32.236-72 72v9h200v-9c0-39.764-32.236-72-72-72h-4v-18.389c17.237-8.189 29.628-24.924 31.695-44.73C161.52 99.058 166 94.052 166 88V74c0-5.946-4.325-10.882-10-11.834V56c0-30.928-25.072-56-56-56z" fill="#EDB98A"/><path d="M76 144.611v8A55.79 55.79 0 00100 158a55.789 55.789 0 0024-5.389v-8A55.789 55.789 0 01100 150a55.79 55.79 0 01-24-5.389z" fill="#000" fill-opacity=".1"/></g><g transform="translate(8, 170)"><path d="M132.5 51.828c18.502 0 33.5-9.617 33.5-21.48 0-.353-.013-.704-.04-1.053 36.976 3.03 66.04 34 66.04 71.757V110H32v-8.948c0-38.1 29.592-69.287 67.045-71.833-.03.374-.045.75-.045 1.129 0 11.863 14.998 21.48 33.5 21.48z" fill="#E6E6E6"/><path d="M132.5 58.761c21.89 0 39.635-12.05 39.635-26.913 0-.603-.029-1.2-.086-1.793a72.056 72.056 0 00-6.089-.76c.027.349.04.7.04 1.053 0 11.863-14.998 21.48-33.5 21.48-18.502 0-33.5-9.617-33.5-21.48 0-.379.015-.755.045-1.128-2.05.139-4.077.364-6.077.672a18.594 18.594 0 00-.103 1.956c0 14.864 17.745 26.913 39.635 26.913z" fill="#000" fill-opacity=".16"/><path d="M100.778 29.122c.072-.378.145-.752.222-1.122-2.959.054-6 1-6 1l-.42.662C59.267 34.276 32 64.48 32 101.052V110h74s-10.7-51.555-5.238-80.793l.023-.085h-.007zM158 110s11-53 5-82c2.959.054 6 1 6 1l.419.662C204.733 34.276 232 64.48 232 101.052V110h-74z" fill="#3C4F5C"/><path fill-rule="evenodd" clip-rule="evenodd" d="M101 28c-6 29 5 82 5 82H90L76 74l6-9-6-6 19-30s3.041-.946 6-1zm62 0c6 29-5 82-5 82h16l14-36-6-9 6-6-19-30s-3.041-.946-6-1z" fill="#000" fill-opacity=".15"/><path d="M183.423 85.77l.871-2.24 6.262-4.697a4 4 0 014.856.043L202 84l-18.577 1.77z" fill="#E6E6E6"/></g><g transform="translate(86, 134)"><path fill-rule="evenodd" clip-rule="evenodd" d="M35.118 15.128C36.176 24.62 44.226 32 54 32c9.804 0 17.874-7.426 18.892-16.96.082-.767-.775-2.04-1.85-2.04H37.088c-1.08 0-2.075 1.178-1.97 2.128z" fill="#000" fill-opacity=".7"/><path d="M70 13H39a5 5 0 005 5h21a5 5 0 005-5z" fill="#fff"/><path d="M66.694 27.138A10.964 10.964 0 0059 24c-1.8 0-3.5.433-5 1.2-1.5-.767-3.2-1.2-5-1.2-2.995 0-5.71 1.197-7.693 3.138A18.93 18.93 0 0054 32c4.88 0 9.329-1.84 12.694-4.862z" fill="#FF4F6D"/></g><g transform="translate(112, 122)"><path fill-rule="evenodd" clip-rule="evenodd" d="M16 8c0 4.418 5.373 8 12 8s12-3.582 12-8" fill="#000" fill-opacity=".16"/></g><g transform="translate(84, 90)"><path d="M44 22c0 7.732-6.268 14-14 14s-14-6.268-14-14S22.268 8 30 8s14 6.268 14 14zm52 0c0 7.732-6.268 14-14 14s-14-6.268-14-14S74.268 8 82 8s14 6.268 14 14z" fill="#fff"/><path d="M36 14a6 6 0 11-12 0 6 6 0 0112 0zm52 0a6 6 0 11-12 0 6 6 0 0112 0z" fill="#000" fill-opacity=".7"/></g><g transform="translate(84, 82)"><path d="M38.028 5.591c-1.48 8.389-14.09 14.18-23.238 10.432-1.015-.416-2.19.031-2.627.999-.436.968.033 2.09 1.048 2.505 11.444 4.69 26.835-2.38 28.762-13.303.183-1.039-.551-2.023-1.64-2.197-1.09-.175-2.121.525-2.305 1.564zm35.945 0c1.48 8.389 14.09 14.18 23.238 10.432 1.014-.416 2.19.031 2.627.999.436.968-.033 2.09-1.048 2.505-11.444 4.69-26.835-2.38-28.762-13.303-.183-1.039.551-2.023 1.64-2.197 1.09-.175 2.121.525 2.305 1.564z" fill="#000" fill-opacity=".6"/></g><g transform="translate(7, 0)"><circle cx="133" cy="20" r="20" fill="#F4F4F4"/><path fill-rule="evenodd" clip-rule="evenodd" d="M67 78c0-36.45 29.55-66 66-66 36.451 0 66 29.55 66 66v5H67v-5z" fill="#FF488E"/><path fill-rule="evenodd" clip-rule="evenodd" d="M64 69.772c0-2.389 1.058-4.64 3.046-5.963C74.846 58.62 97.47 46 133.073 46c35.606 0 58.137 12.62 65.898 17.81 1.979 1.323 3.029 3.567 3.029 5.947V99.95c0 3.306-3.907 5.385-6.783 3.756C184.842 97.829 163.109 88 133.804 88c-29.759 0-52.525 10.137-63.172 15.977-2.853 1.565-6.632-.496-6.632-3.749V69.772z" fill="#000" fill-opacity=".1"/><path fill-rule="evenodd" clip-rule="evenodd" d="M64 67.772c0-2.389 1.058-4.64 3.046-5.963C74.846 56.62 97.47 44 133.073 44c35.606 0 58.137 12.62 65.898 17.81 1.979 1.323 3.029 3.567 3.029 5.947V97.95c0 3.306-3.907 5.385-6.783 3.756C184.842 95.829 163.109 86 133.804 86c-29.759 0-52.525 10.137-63.172 15.977-2.853 1.565-6.632-.496-6.632-3.75V67.773z" fill="#F4F4F4"/></g></svg>