<svg id="base" xmlns="http://www.w3.org/2000/svg" viewBox="0 0 500 500"><defs><style>.cls-1{fill:#fff;}</style></defs><path class="cls-1" d="M298.89,237.28c14.25-1.14,24.64-7.33,35.75-28.75l30.81-53.78c4.3-7.5-8.91-16.28-14.4-8.25l-25.52,43.32a7.07,7.07,0,0,1-12.26-7L339.65,138c4.62-8.06-8.13-16.44-13.34-7.65-7.19,12.54-19.22,32.31-26.39,44.82a6.14,6.14,0,0,1-9.3,2.87,5.89,5.89,0,0,1-2.25-3,6.2,6.2,0,0,1,1-5.9l26.2-44.51a8.43,8.43,0,0,0-4.1-11.21,8.55,8.55,0,0,0-4.26-.75c-6.6.31-9.17,7.08-12.4,12.21l-31.17,50.5c-8.32,15.1-11.37,29.51-2.6,41.42a34.32,34.32,0,0,0,6,5.84l-86.32,139.7c-4.36,7.17-3.7,12.63,3.46,17l2.7,1.55,4.33,2.48c8.28,4.57,13.65,6.71,18.22-1.56L231.66,340l57.16-104.91a26.67,26.67,0,0,0,10.11,2.25Zm-38.74,86.37-56.34-90.54c-52.62,1.64-93.69-92.24-54.64-115.77,47.43-28.63,112.9,64.52,79,100.22l93,147.83c13.62,20.68-11,38.75-25.55,15.31Z"/><rect class="cls-1" x="232.28" y="251.27" width="33.46" height="55.61"/></svg>